<svg width="20" height="20" viewBox="0 0 20 20" fill="none" xmlns="http://www.w3.org/2000/svg">
<path d="M17.9797 10.527C17.9797 10.5465 17.9867 10.564 17.9847 10.5835C17.9832 10.5935 17.9772 10.601 17.9757 10.611C17.7329 13.7955 15.6179 16.459 12.7326 17.512C12.696 17.5305 12.658 17.543 12.617 17.552C11.7967 17.837 10.9198 18 10.0034 18C5.59066 18 2.00018 14.411 2.00018 10C2.00018 9.664 2.02771 9.335 2.06825 9.0095C2.07025 8.996 2.06625 8.9835 2.06925 8.97C2.07075 8.9635 2.07526 8.959 2.07676 8.9525C2.41458 6.3875 3.97359 4.207 6.1462 3.003C6.18724 2.969 6.23378 2.9465 6.28233 2.9275C7.39491 2.339 8.65863 2 10.0034 2C12.0369 2 13.8897 2.7685 15.3031 4.022C15.3071 4.024 15.3121 4.024 15.3161 4.0265C15.3751 4.0635 15.4232 4.111 15.4607 4.165C17.0232 5.626 18.0067 7.698 18.0067 10C18.0067 10.178 17.9912 10.352 17.9797 10.527ZM16.9296 10.977C15.2956 10.835 13.8577 10.9345 12.6 11.169C12.9958 12.643 13.2065 14.347 13.0789 16.2865C15.1194 15.2825 16.6013 13.3125 16.9296 10.977ZM10.0034 17C10.7126 17 11.3948 16.8895 12.0399 16.6925C12.2301 14.6735 12.0359 12.908 11.619 11.3855C10.1125 11.779 8.91688 12.362 8.03053 12.9205C6.63217 13.802 5.76483 14.7445 5.36745 15.232C6.60364 16.328 8.22471 17 10.0034 17ZM3.00065 10C3.00065 11.719 3.62626 13.2925 4.65826 14.512C5.47405 13.528 7.60611 11.3975 11.3172 10.4195C11.127 9.8865 10.9113 9.387 10.6776 8.921C9.3478 9.5355 7.73174 9.9585 5.79686 9.9585C4.93503 9.9585 4.00663 9.8685 3.01667 9.6805C3.01216 9.787 3.00065 9.892 3.00065 10ZM3.13028 8.6755C6.08964 9.249 8.41089 8.8215 10.1831 8.025C8.79527 5.7165 7.06959 4.4 6.44799 3.9745C4.75285 4.9795 3.51515 6.677 3.13028 8.6755ZM10.0034 3C9.11007 3 8.25724 3.172 7.47098 3.4785C8.17066 4.0105 9.25421 4.9565 10.2917 6.3625C10.5545 6.719 10.8222 7.121 11.083 7.561C12.7521 6.5975 13.8251 5.3475 14.3842 4.5475C13.1835 3.5815 11.661 3 10.0034 3ZM15.1199 5.2375C14.4828 6.124 13.3272 7.4375 11.57 8.4555C11.8357 8.9865 12.0835 9.5665 12.3012 10.1955C13.6755 9.932 15.2365 9.8255 17.0052 9.9795C16.9997 8.1475 16.2815 6.4835 15.1199 5.2375Z" fill="black"/>
</svg>
