<svg width="20" height="20" viewBox="0 0 20 20" fill="none" xmlns="http://www.w3.org/2000/svg">
<path d="M12.5022 17.5C12.5052 17.0268 12.5082 15.3844 12.5082 14.7341C12.5082 13.7944 12.1872 13.1795 11.8272 12.8682C14.0621 12.6185 16.4084 11.7673 16.4084 7.89523C16.4084 6.79506 16.0208 5.89506 15.3771 5.19087C15.4802 4.93587 15.8244 3.9108 15.2771 2.5233C15.2771 2.5233 14.4363 2.25249 12.5201 3.55749C11.7183 3.3332 10.8609 3.22222 10.0083 3.21776C9.15548 3.22222 8.29825 3.3333 7.49625 3.55749C5.5801 2.25249 4.73939 2.5233 4.73939 2.5233C4.1921 3.9108 4.53629 4.93587 4.63936 5.19087C3.99568 5.89506 3.60811 6.79506 3.60811 7.89523C3.60811 11.7673 5.95429 12.6185 8.18919 12.8682C7.82929 13.1795 7.50821 13.7944 7.50821 14.7341C7.50821 15.3844 7.51125 17.0268 7.51419 17.5M3 13.4459C4.00733 13.5172 4.58818 14.4326 4.58818 14.4326C5.48352 15.973 6.9373 15.5275 7.50862 15.2703" stroke="black" stroke-linecap="round" stroke-linejoin="round"/>
</svg>
