<svg width="20" height="20" viewBox="0 0 20 20" fill="none" xmlns="http://www.w3.org/2000/svg">
<path d="M6.09836 7.81968H3.22951V17H6.09836V7.81968ZM6.35656 4.66393C6.35807 4.44693 6.31682 4.23176 6.23517 4.03069C6.15353 3.82963 6.03307 3.64661 5.88069 3.4921C5.72831 3.33759 5.54699 3.2146 5.34708 3.13017C5.14717 3.04574 4.93258 3.0015 4.71558 3H4.66393C4.22264 3 3.79941 3.17531 3.48735 3.48735C3.17531 3.79941 3 4.22264 3 4.66393C3 5.10524 3.17531 5.52847 3.48735 5.84052C3.79941 6.15257 4.22264 6.32788 4.66393 6.32788C4.88096 6.33321 5.09691 6.29574 5.29943 6.21759C5.50196 6.13945 5.68712 6.02216 5.8443 5.87243C6.00149 5.7227 6.12764 5.54346 6.21553 5.34497C6.30343 5.14647 6.35135 4.9326 6.35656 4.71558V4.66393ZM17 11.423C17 8.66316 15.2443 7.59018 13.5 7.59018C12.9289 7.56158 12.3603 7.68321 11.8508 7.94296C11.3415 8.20267 10.909 8.59147 10.5967 9.07049H10.5164V7.81968H7.81967V17H10.6885V12.1172C10.6471 11.6172 10.8046 11.1209 11.1269 10.7363C11.4491 10.3517 11.9102 10.1098 12.4098 10.0632H12.5189C13.4312 10.0632 14.1082 10.6369 14.1082 12.0828V17H16.9771L17 11.423Z" stroke="black" stroke-linejoin="round"/>
</svg>
