<svg width="24" height="24" viewBox="0 0 24 24" fill="none" xmlns="http://www.w3.org/2000/svg">
<g clip-path="url(#clip0_2049_133)">
<path fill-rule="evenodd" clip-rule="evenodd" d="M16.5834 0.916699C18.0385 1.51945 19.3601 2.40316 20.473 3.51604C21.5859 4.62893 22.4696 5.95058 23.0724 7.40408C23.6736 8.85914 23.9843 10.4178 23.9843 11.9922C23.9843 16.8408 21.0632 21.2123 16.5834 23.0676C12.1052 24.923 6.94889 23.8964 3.52077 20.4683C0.0910789 17.0402 -0.933905 11.8839 0.921425 7.40408C2.77676 2.92586 7.14824 0.00473022 11.9969 0.00473022C13.5713 0.00473022 15.1299 0.313952 16.5834 0.916699ZM15.3607 20.1136C16.428 19.6725 17.3965 19.0242 18.2127 18.208C19.0289 17.3918 19.6772 16.4233 20.1183 15.3559C20.5609 14.2901 20.787 13.1459 20.787 11.9922C20.787 8.43691 18.6459 5.23168 15.3607 3.87079C12.0754 2.5099 8.29409 3.26176 5.78107 5.77635C3.26649 8.29093 2.51462 12.0707 3.87551 15.3559C5.23483 18.6412 8.44163 20.7838 11.9969 20.7838C13.1506 20.7838 14.2949 20.5562 15.3607 20.1136ZM9.13071 17.1187L6.87041 14.8584L14.8631 6.86568L17.1234 9.12599L9.13071 17.1187Z" fill="black"/>
</g>
<defs>
<clipPath id="clip0_2049_133">
<rect width="24" height="23.9843" fill="white"/>
</clipPath>
</defs>
</svg>
