<svg width="24" height="24" viewBox="0 0 24 24" fill="none" xmlns="http://www.w3.org/2000/svg">
<path d="M9.47185 1.44851C11.0208 0.552414 12.9305 0.552414 14.4795 1.44851L19.8507 4.55589C21.3956 5.44963 22.3469 7.09906 22.3469 8.88382V15.1162C22.3469 16.9009 21.3956 18.5504 19.8507 19.4441L14.4795 22.5515C12.9305 23.4476 11.0208 23.4476 9.47185 22.5515L4.10063 19.4441C2.55577 18.5504 1.60443 16.9009 1.60443 15.1162V8.88382C1.60443 7.09906 2.55577 5.44963 4.10063 4.55589L9.47185 1.44851Z" fill="black"/>
<path d="M12.8761 11.4889C14.3817 11.4889 15.6027 12.7098 15.6027 14.2154V17.5738C14.0972 17.5738 12.8763 16.3537 12.8761 14.8482V11.4889ZM8.7384 6.6207C10.244 6.6207 11.465 7.84164 11.465 9.34726V17.3307C9.95935 17.3307 8.7384 16.1097 8.7384 14.6041V6.6207Z" fill="white"/>
</svg>
