<svg width="24" height="24" viewBox="0 0 24 24" fill="none" xmlns="http://www.w3.org/2000/svg">
<g clip-path="url(#clip0_2049_128)">
<path d="M12 24C18.6274 24 24 18.6274 24 12C24 5.37258 18.6274 0 12 0C5.37258 0 0 5.37258 0 12C0 18.6274 5.37258 24 12 24Z" fill="black"/>
<path d="M17.587 14.559C16.704 14.559 16.097 13.911 16.097 12.985C16.097 12.073 16.717 11.425 17.587 11.425C18.457 11.425 19.078 12.073 19.078 12.998C19.078 13.895 18.444 14.558 17.588 14.558L17.587 14.559ZM17.617 9.407C15.352 9.407 13.845 10.844 13.845 12.983C13.845 15.178 15.296 16.587 17.574 16.587C19.838 16.587 21.329 15.178 21.329 12.997C21.329 10.844 19.854 9.407 17.616 9.407H17.617ZM11.78 6.272C10.924 6.272 10.385 6.755 10.385 7.515C10.385 8.289 10.937 8.772 11.82 8.772C12.677 8.772 13.215 8.289 13.215 7.515C13.215 6.742 12.663 6.272 11.78 6.272ZM11.932 9.476H11.655C10.98 9.476 10.468 9.793 10.468 10.761V15.181C10.468 16.161 10.964 16.465 11.684 16.465H11.959C12.636 16.465 13.119 16.135 13.119 15.18V10.761C13.119 9.766 12.649 9.476 11.932 9.476ZM8.316 7.392H7.916C7.156 7.392 6.742 7.822 6.742 8.677V12.807C6.742 13.87 6.382 14.243 5.542 14.243C4.88 14.243 4.341 13.953 3.912 13.427C3.87 13.373 3 13.786 3 14.81C3 15.914 4.035 16.591 5.955 16.591C8.289 16.591 9.518 15.418 9.518 12.849V8.675C9.518 7.819 9.105 7.392 8.316 7.392Z" fill="white"/>
</g>
<defs>
<clipPath id="clip0_2049_128">
<rect width="24" height="24" fill="white"/>
</clipPath>
</defs>
</svg>
